<?xml version="1.0" encoding="utf-8"?><svg viewBox="0 0 62 62" xmlns="http://www.w3.org/2000/svg" xmlns:xlink="http://www.w3.org/1999/xlink"><style>:root>svg{display:none}:root>svg:target{display:block}</style><svg viewBox="0 0 20 20" id="arrow-right" xmlns="http://www.w3.org/2000/svg"><path d="M0 8.89h15.744l-3.983-3.984 1.572-1.572L20 10l-6.667 6.667-1.572-1.572 3.983-3.984H0V8.89z"/></svg><svg viewBox="0 0 18 24" id="cart" xmlns="http://www.w3.org/2000/svg"><path d="M15.11 6.644h-.883V5.368A5.375 5.375 0 008.858 0 5.375 5.375 0 003.49 5.369v1.275h-.884A2.609 2.609 0 000 9.249v12.145A2.609 2.609 0 002.606 24H15.11a2.609 2.609 0 002.605-2.606V9.25a2.609 2.609 0 00-2.605-2.605zM5.19 5.368A3.673 3.673 0 018.858 1.7a3.673 3.673 0 013.669 3.668v1.276H5.19V5.368zm10.827 16.026c0 .5-.407.906-.906.906H2.606a.907.907 0 01-.906-.906V9.25c0-.5.406-.905.906-.905h.883v1.192a1.29 1.29 0 00-.449.975 1.3 1.3 0 102.599 0c0-.39-.176-.737-.45-.975V8.344h7.338v1.192a1.29 1.29 0 00-.45.975 1.3 1.3 0 102.6 0c0-.39-.177-.737-.45-.975V8.344h.884c.5 0 .905.406.905.905v12.145z"/></svg><svg viewBox="0 0 62 62" id="chemical-icon" xmlns="http://www.w3.org/2000/svg"><g clip-path="url(#clip0_157_2384)"><path d="M34.42 30.21l-2.411-3.86c-.375-.6-1.365-.6-1.74 0l-2.412 3.86a3.822 3.822 0 00-.104 3.927 3.823 3.823 0 003.386 1.995 3.823 3.823 0 003.386-1.995 3.822 3.822 0 00-.104-3.928zm-1.69 2.932c-.326.587-.92.937-1.59.937-.671 0-1.266-.35-1.592-.937a1.794 1.794 0 01.05-1.844l1.541-2.467 1.542 2.467c.355.568.373 1.258.049 1.844zM47.597 4.863a4.625 4.625 0 00-1.363-3.291 4.662 4.662 0 00-6.58-.003l-3.38 3.35-1.33-1.33-1.452 1.45 2.053 2.053.3.301-5.432 5.433c-.192.192-.3.453-.3.725v3.08c0 .567.458 1.026 1.026 1.026h3.079c.272 0 .533-.108.725-.3l5.433-5.433.301.3 2.053 2.053 1.451-1.451-1.324-1.324 3.377-3.347a4.622 4.622 0 001.363-3.292zM33.793 15.604h-1.628v-1.628l5.132-5.132 1.628 1.628-5.132 5.132zM44.785 6.7l-3.38 3.35-.303-.303-3.08-3.08-.297-.297 3.377-3.347a2.606 2.606 0 013.68 0c.492.492.763 1.146.763 1.84 0 .696-.271 1.35-.76 1.837z"/><path d="M61.925 30.923a1.025 1.025 0 00-.696-.86c-.399-.133-9.854-3.198-16.378 2.237-2.824 2.354-3.856 5.112-4.116 7.52l-1.385-2.894V25.693a3.085 3.085 0 002.053-2.904 3.083 3.083 0 00-3.08-3.08H23.955a3.083 3.083 0 00-3.08 3.08c0 1.338.859 2.48 2.054 2.904v11.233l-.5 1.046c.071-3.012-.524-6.476-2.77-9.621-5.344-7.482-16.685-8.593-17.165-8.637a1.02 1.02 0 00-1.083.753c-.13.475-3.137 11.72.047 19.148 3.307 7.718 13.839 7.807 14.286 7.807a1.026 1.026 0 00.88-1.554l-3.08-5.132a1.028 1.028 0 00-.518-.433l-4.627-1.735 2.382-.397a1.025 1.025 0 00.77-1.43l-2.395-5.386 1.841 1.473c.408.325.997.295 1.367-.076l1.327-1.327v5.733c0 .193.055.381.157.545l4.934 7.894-4.233 8.849a5.107 5.107 0 00.29 4.95 5.105 5.105 0 004.34 2.396H43.1a5.106 5.106 0 004.341-2.396 5.107 5.107 0 00.289-4.95l-4.18-8.741 3.708-3.676c.114-.114.2-.252.25-.404l1.08-3.238.053.159a1.023 1.023 0 001.377.618l2.846-1.219-7.089 7.797a1.028 1.028 0 00.229 1.568c.918.556 2.52 1.131 4.407 1.131 1.858 0 3.993-.56 6.02-2.246 6.506-5.424 5.538-14.872 5.494-15.272zm-46.182 5.94v-7.916a1.026 1.026 0 00-1.752-.726l-2.43 2.43-4.414-3.532a1.028 1.028 0 00-1.58 1.219l3.567 8.026-4.85.808a1.027 1.027 0 00-.192 1.974l7.876 2.953 1.871 3.12c-2.947-.383-8.485-1.72-10.496-6.412C.92 33.154 2.557 24.6 3.18 21.873c2.674.407 10.808 2.073 14.807 7.67 3.364 4.71 2.422 10.49 1.589 13.453l-3.833-6.132zm29.962 21.439a3.064 3.064 0 01-2.605 1.437H19.178a3.064 3.064 0 01-2.605-1.437 3.05 3.05 0 01-.459-1.642h12.305a1.028 1.028 0 00.98-1.33 1.738 1.738 0 01.198-1.452l1.542-2.467 1.537 2.461c.186.3.28.624.28.96 0 .175-.025.334-.074.489a1.025 1.025 0 00.977 1.339h12.305a3.05 3.05 0 01-.46 1.642zm-.174-3.695H35a3.906 3.906 0 00-.58-1.817l-2.256-3.609v-.732h1.027a5.138 5.138 0 005.132-5.132c0-.568-.46-1.027-1.027-1.027h-2.053c-1.16 0-2.218.402-3.079 1.053v-.026h-.435a5.135 5.135 0 00-4.697-3.08H24.98c-.567 0-1.026.46-1.026 1.027a5.138 5.138 0 005.132 5.132h1.027v2.785l-2.256 3.609a3.846 3.846 0 00-.58 1.817h-10.53l8.133-17.006c.067-.138.1-.29.1-.443v-11.29h3.08v-2.053h-4.106a1.027 1.027 0 010-2.053h14.37a1.027 1.027 0 010 2.053h-4.106v2.053h3.08v11.29c0 .154.033.305.1.443l8.133 17.006zm-13.19-8.211a3.086 3.086 0 012.903-2.053h.851a3.085 3.085 0 01-2.903 2.053h-.851zm-2.404-2.053h-.85a3.086 3.086 0 01-2.905-2.053h.851c1.338 0 2.48.858 2.904 2.053zm25.179.274c-2.69 2.241-5.364 1.913-6.855 1.442l9.297-10.227a1.026 1.026 0 00-1.163-1.633l-6.16 2.639-.674-2.021a1.025 1.025 0 00-1.947 0l-1.975 5.927-2.712 2.687c-.456-2.197-.63-6.33 3.239-9.553 4.734-3.948 11.627-2.601 13.761-2.052.082 2.138-.07 8.84-4.811 12.79z"/><path d="M23.034 44.91l-2.053 4.106 1.836.918 2.053-4.105-1.836-.918zm-3.079 6.16l-1.026 2.053 1.836.919 1.026-2.053-1.836-.918zm.92-50.862a6.165 6.165 0 00-6.158 6.159 6.165 6.165 0 006.158 6.158 6.165 6.165 0 006.159-6.158A6.165 6.165 0 0020.875.208zm0 10.264a4.11 4.11 0 01-4.105-4.105 4.11 4.11 0 014.105-4.106 4.11 4.11 0 014.106 4.106 4.11 4.11 0 01-4.106 4.105zM50.64 16.63a4.11 4.11 0 00-4.105 4.106 4.11 4.11 0 004.105 4.106 4.11 4.11 0 004.106-4.106 4.11 4.11 0 00-4.106-4.105zm0 6.159a2.055 2.055 0 01-2.053-2.053c0-1.131.922-2.053 2.053-2.053 1.132 0 2.053.922 2.053 2.053a2.055 2.055 0 01-2.053 2.053zm9.238-20.528V.208h-2.053v2.053h-2.053v2.053h2.053v2.053h2.053V4.314h2.053V2.26h-2.053z"/><path d="M19.849 5.34h-2.053v2.053h2.053V5.34zM7.532 8.42V6.366H5.479v2.052H3.426v2.053H5.48v2.053h2.053v-2.053h2.053V8.42H7.532z"/></g></svg><svg viewBox="0 0 8 14" id="fb" xmlns="http://www.w3.org/2000/svg"><path d="M7.284.003L5.47 0C3.429 0 2.11 1.352 2.11 3.445v1.589H.285A.285.285 0 000 5.32v2.3c0 .158.128.286.285.286h1.826v5.807c0 .158.128.286.285.286h2.382a.285.285 0 00.285-.286V7.907h2.135a.285.285 0 00.285-.286l.001-2.301a.286.286 0 00-.286-.286H5.063V3.687c0-.647.155-.975.998-.975h1.223a.285.285 0 00.285-.286V.288a.286.286 0 00-.285-.285z"/></svg><svg viewBox="0 0 62 62" id="ingredients-icon" xmlns="http://www.w3.org/2000/svg"><g clip-path="url(#clip0_157_2355)"><path d="M26.842 51.667a15.344 15.344 0 00-7.583-12.463l-7.138-7.931a3.86 3.86 0 00-3.854-1.184V16.533a4.133 4.133 0 10-8.267 0v19.558a9.33 9.33 0 001.17 4.519l9.163 16.491v3.866c0 .57.463 1.033 1.034 1.033h14.466c.571 0 1.034-.463 1.034-1.033v-9.3h-.025zM24.8 59.933H12.4v-3.1a1.04 1.04 0 00-.13-.502L2.977 39.605a7.261 7.261 0 01-.91-3.514V16.533a2.067 2.067 0 114.133 0v14.832a3.927 3.927 0 00.07 5.2l8.465 9.315 1.53-1.39-8.466-9.314a1.879 1.879 0 112.786-2.52l7.247 8.051c.092.093.197.173.31.238a13.24 13.24 0 016.658 11.47v7.518zM57.867 12.4a4.133 4.133 0 00-4.134 4.133V30.09a4.002 4.002 0 00-1.025-.122 3.909 3.909 0 00-2.829 1.305L42.743 39.2a15.31 15.31 0 00-7.585 12.466h-.025v9.3c0 .57.463 1.033 1.034 1.033h14.466c.571 0 1.034-.463 1.034-1.033v-3.868l9.048-16.401A9.307 9.307 0 0062 35.983v-19.45a4.133 4.133 0 00-4.133-4.133zm2.066 23.583a7.268 7.268 0 01-1.012 3.692l-9.197 16.66a1.031 1.031 0 00-.124.498v3.1H37.2v-7.517a13.263 13.263 0 016.71-11.496c.097-.055.184-.124.258-.207l7.246-8.06a1.88 1.88 0 112.79 2.52l-8.469 9.314 1.53 1.393 8.466-9.312a3.927 3.927 0 00.069-5.203V16.533a2.067 2.067 0 114.133 0v19.45z"/><path d="M43.4 25.833h-2.066a11.356 11.356 0 00-9.3 4.857v-6.923h1.033c6.274-.008 11.36-5.093 11.367-11.367 0-.57-.463-1.033-1.034-1.033h-2.066a11.356 11.356 0 00-9.3 4.856V9.3h1.033a8.276 8.276 0 008.267-8.267C41.334.463 40.87 0 40.3 0h-2.066A8.267 8.267 0 0031 4.274 8.266 8.266 0 0023.767 0H21.7c-.57 0-1.033.463-1.033 1.033A8.276 8.276 0 0028.934 9.3h1.033v6.923a11.356 11.356 0 00-9.3-4.856H18.6c-.57 0-1.033.462-1.033 1.033.007 6.274 5.092 11.36 11.367 11.367h1.033v6.923a11.356 11.356 0 00-9.3-4.857H18.6c-.57 0-1.033.463-1.033 1.034.007 6.274 5.092 11.359 11.367 11.366h1.033V46.5h2.067v-8.267h1.033c6.274-.007 11.36-5.092 11.367-11.366 0-.571-.463-1.034-1.034-1.034zm-2.066-12.4h.976a9.314 9.314 0 01-9.243 8.267h-.977a9.313 9.313 0 019.244-8.267zm-3.1-11.366h.947a6.21 6.21 0 01-6.114 5.166h-.948a6.21 6.21 0 016.115-5.166zm-9.3 5.166a6.21 6.21 0 01-6.115-5.166h.948a6.21 6.21 0 016.114 5.166h-.947zm0 14.467a9.313 9.313 0 01-9.244-8.267h.977A9.314 9.314 0 0129.91 21.7h-.976zm0 14.467A9.313 9.313 0 0119.69 27.9h.977a9.314 9.314 0 019.243 8.267h-.976zm4.133 0h-.977a9.313 9.313 0 019.244-8.267h.976a9.314 9.314 0 01-9.243 8.267z"/></g></svg><svg viewBox="0 0 14 14" id="inst" xmlns="http://www.w3.org/2000/svg"><path d="M7.138 14h-.14a48.664 48.664 0 01-3.097-.085c-.904-.055-1.73-.368-2.387-.904C.88 12.494.447 11.795.227 10.933c-.191-.75-.201-1.487-.211-2.2C.009 8.224 0 7.618 0 7.002c.001-.618.009-1.224.016-1.735.01-.712.02-1.449.211-2.199C.447 2.205.88 1.506 1.514.99 2.172.453 2.997.14 3.901.085c.986-.06 2-.087 3.1-.085a48.974 48.974 0 013.097.085c.905.055 1.73.368 2.387.904.635.517 1.068 1.216 1.287 2.078.192.75.202 1.487.212 2.2.007.51.014 1.116.015 1.732V7c0 .616-.008 1.222-.015 1.733-.01.712-.02 1.448-.212 2.199-.22.862-.652 1.561-1.287 2.078-.657.536-1.482.849-2.386.904-.945.057-1.915.085-2.961.085zm-.14-1.094a47.82 47.82 0 003.034-.083c.684-.042 1.276-.264 1.762-.66.449-.366.758-.87.919-1.5.159-.625.168-1.296.177-1.944.007-.508.014-1.11.016-1.719-.002-.61-.009-1.211-.016-1.719-.009-.648-.018-1.319-.177-1.944-.161-.63-.47-1.135-.92-1.5-.485-.396-1.077-.618-1.76-.66A47.789 47.789 0 007 1.094c-1.08-.003-2.07.024-3.034.083-.683.042-1.276.264-1.761.66-.45.365-.758.87-.92 1.5-.158.625-.168 1.296-.177 1.944-.006.508-.014 1.11-.015 1.72.001.608.009 1.21.015 1.718.01.648.019 1.319.178 1.944.16.63.47 1.134.919 1.5.485.396 1.078.618 1.761.66a47.49 47.49 0 003.031.083zm-.026-2.488A3.422 3.422 0 013.554 7a3.422 3.422 0 013.418-3.418A3.422 3.422 0 0110.39 7a3.422 3.422 0 01-3.418 3.418zm0-5.742A2.327 2.327 0 004.648 7a2.327 2.327 0 002.324 2.324A2.327 2.327 0 009.297 7a2.327 2.327 0 00-2.325-2.324zm3.801-2.188a.82.82 0 100 1.64.82.82 0 000-1.64z"/></svg><svg viewBox="0 0 12 14" id="pin" xmlns="http://www.w3.org/2000/svg"><path d="M5.878 0C2.04 0 0 2.459 0 5.14c0 1.243.695 2.794 1.807 3.286.169.076.26.044.298-.113.034-.12.18-.692.25-.963a.247.247 0 00-.059-.243c-.37-.427-.662-1.205-.662-1.935 0-1.87 1.486-3.685 4.016-3.685 2.188 0 3.718 1.42 3.718 3.453 0 2.297-1.215 3.887-2.795 3.887-.874 0-1.525-.687-1.318-1.535.249-1.011.738-2.098.738-2.827 0-.653-.37-1.194-1.123-1.194-.89 0-1.612.881-1.612 2.064 0 .752.266 1.26.266 1.26l-1.044 4.22c-.277 1.124.037 2.945.065 3.102.016.086.113.113.168.043.086-.114 1.15-1.632 1.449-2.73.108-.4.554-2.021.554-2.021.293.53 1.139.973 2.04.973 2.681 0 4.619-2.357 4.619-5.28C11.365 2.096 8.965 0 5.878 0z"/></svg><svg viewBox="0 0 62 62" id="quality-icon" xmlns="http://www.w3.org/2000/svg"><g clip-path="url(#clip0_157_2371)"><path d="M29.953 23.64a.917.917 0 001.383-.157l6.045-9.123a.909.909 0 00-1.514-1.003l-5.448 8.22-3.026-2.873a.909.909 0 00-1.251 1.317l3.811 3.62z"/><path d="M30.573 37.493c.174.08.366.121.557.121h.008c.194 0 .389-.045.563-.128 13.81-6.568 16.15-20.74 16.539-24.926a2.17 2.17 0 00-1.34-2.215 7.937 7.937 0 01-4.877-6.661 1.794 1.794 0 00-1.78-1.625h-.01l-18.606.109a1.78 1.78 0 00-1.772 1.658 7.938 7.938 0 01-4.806 6.71 2.163 2.163 0 00-1.306 2.226c.437 4.182 2.944 18.325 16.83 24.73zm-14.81-25.288a9.747 9.747 0 005.9-8.221l18.553-.11a9.748 9.748 0 005.988 8.148c.15.063.242.212.227.37-.364 3.924-2.543 17.154-15.304 23.354-12.835-6.049-15.167-19.253-15.578-23.173a.358.358 0 01.214-.368z"/><path d="M18.03 17.24c.11.404.623.774 1.116.638a.91.91 0 00.638-1.114 29.954 29.954 0 01-.579-2.573 12.773 12.773 0 005.197-6.81l13.116-.078c.93 2.792 2.79 5.17 5.276 6.75a29.682 29.682 0 01-.549 2.58.909.909 0 101.76.456 31.62 31.62 0 00.628-3.031 1.389 1.389 0 00-.655-1.409 10.96 10.96 0 01-4.82-6.179 1.404 1.404 0 00-1.334-.985h-.009l-13.732.08a1.405 1.405 0 00-1.331 1.002 10.961 10.961 0 01-4.748 6.235 1.388 1.388 0 00-.638 1.416c.17 1.004.393 2.02.665 3.022zm24.138 2.693a.908.908 0 00-1.186.493c-2.098 5.087-5.42 8.954-9.878 11.5-4.491-2.497-7.862-6.332-10.02-11.402a.909.909 0 00-1.671.71c2.355 5.534 6.065 9.706 11.028 12.399a1.39 1.39 0 001.347-.008c4.925-2.747 8.583-6.956 10.874-12.507a.907.907 0 00-.494-1.185zM5.827 48.531a3.217 3.217 0 00-3.213 3.213 3.217 3.217 0 003.213 3.214 3.217 3.217 0 003.214-3.214 3.217 3.217 0 00-3.214-3.213zm0 4.61c-.77 0-1.397-.626-1.397-1.397 0-.77.627-1.397 1.397-1.397s1.397.627 1.397 1.397-.626 1.397-1.397 1.397z"/><path d="M61.349 39.64a3.783 3.783 0 00-5.225-1.01l-11.873 7.946-2.534-.143-.065-.649a5.512 5.512 0 00-4.772-4.93l-12.793-1.12c-.433-.068-1.819-.466-5.625-2.65a14.127 14.127 0 00-6.473-1.862v-2.376c0-1.192-.97-2.162-2.162-2.162H2.162C.97 30.684 0 31.654 0 32.846v23.401c0 1.192.97 2.162 2.162 2.162h7.665c1.192 0 2.162-.97 2.162-2.162v-.645l11.183 4.235c.024.01.933.35 2.602.192l18.582-2.679.014-.002a9.136 9.136 0 004.33-1.94l.033-.028 12.001-10.794a3.783 3.783 0 00.615-4.946zm-1.825 3.591L47.535 54.014a7.319 7.319 0 01-3.445 1.54L25.522 58.23a.321.321 0 00-.016.002l-.01.002a4.08 4.08 0 01-1.72-.11L11.99 53.66V43.288a.908.908 0 10-1.817 0v12.96c0 .19-.155.345-.345.345H2.162a.346.346 0 01-.346-.346v-23.4c0-.191.156-.347.346-.347h7.665c.19 0 .345.156.345.346v6.34a.908.908 0 101.817 0V37.04a12.3 12.3 0 015.569 1.62c4.591 2.633 5.874 2.815 6.295 2.874l.048.006 12.795 1.12a3.7 3.7 0 013.149 3.303l.048.484-17.13 1.058-.034-.003a2.07 2.07 0 01-1.413-.74.907.907 0 10-1.395 1.164c.667.799 1.607 1.277 2.646 1.385.561.059 18.325-1.106 18.325-1.106l3.56.2a.906.906 0 00.556-.152l12.128-8.116a1.963 1.963 0 012.71.523 1.965 1.965 0 01-.322 2.57z"/></g></svg><svg viewBox="0 0 22 22" id="search" xmlns="http://www.w3.org/2000/svg"><g clip-path="url(#ia)"><path d="M21.731 20.435l-6.256-6.256a8.666 8.666 0 001.941-5.47C17.416 3.906 13.51 0 8.708 0 3.907 0 0 3.907 0 8.708c0 4.802 3.907 8.709 8.708 8.709 2.072 0 3.974-.73 5.47-1.942l6.257 6.256a.914.914 0 001.296 0 .916.916 0 000-1.296zM8.708 15.583a6.882 6.882 0 01-6.875-6.875 6.882 6.882 0 016.875-6.875 6.882 6.882 0 016.875 6.875 6.882 6.882 0 01-6.875 6.875z"/></g><defs><clipPath id="ia"><path d="M0 0h22v22H0z"/></clipPath></defs></svg><svg viewBox="0 0 8 14" id="swiper-arrow-next" xmlns="http://www.w3.org/2000/svg"><path d="M.588 13.004L6.592 7 .588.996A.583.583 0 111.412.17L7.83 6.588a.583.583 0 010 .824L1.412 13.83a.582.582 0 01-.824 0 .583.583 0 010-.825z"/></svg><svg viewBox="0 0 8 14" id="swiper-arrow-prev" xmlns="http://www.w3.org/2000/svg"><path d="M7.412 13.004L1.409 7 7.412.996A.583.583 0 106.588.17L.17 6.588a.583.583 0 000 .824l6.417 6.417a.582.582 0 00.824 0 .583.583 0 000-.825z"/></svg><svg viewBox="0 0 18 14" id="tw" xmlns="http://www.w3.org/2000/svg"><path d="M17.23 1.657a7.366 7.366 0 01-2.035.558A3.513 3.513 0 0016.75.263a7.06 7.06 0 01-2.24.855A3.531 3.531 0 008.4 3.534c0 .28.024.549.082.805A9.999 9.999 0 011.2.644 3.556 3.556 0 00.716 2.43c0 1.223.63 2.307 1.57 2.935A3.489 3.489 0 01.688 4.93v.039a3.549 3.549 0 002.83 3.47c-.287.08-.6.117-.926.117-.226 0-.454-.013-.669-.06a3.566 3.566 0 003.301 2.46 7.098 7.098 0 01-4.38 1.507c-.29 0-.567-.013-.845-.048A9.945 9.945 0 005.42 14c6.5 0 10.053-5.385 10.053-10.052 0-.156-.005-.307-.013-.457a7.047 7.047 0 001.77-1.834z"/></svg><svg viewBox="0 0 24 24" id="user" xmlns="http://www.w3.org/2000/svg"><g clip-path="url(#ma)"><path d="M20.485 15.515a11.954 11.954 0 00-4.56-2.86 6.935 6.935 0 003.012-5.717A6.945 6.945 0 0012 0a6.945 6.945 0 00-6.938 6.938 6.935 6.935 0 003.013 5.717 11.954 11.954 0 00-4.56 2.86A11.922 11.922 0 000 24h1.875c0-5.583 4.542-10.125 10.125-10.125S22.125 18.417 22.125 24H24c0-3.205-1.248-6.219-3.515-8.485zM12 12a5.068 5.068 0 01-5.063-5.063A5.068 5.068 0 0112 1.875a5.068 5.068 0 015.063 5.063A5.068 5.068 0 0112 12z"/></g><defs><clipPath id="ma"><path d="M0 0h24v24H0z"/></clipPath></defs></svg><svg viewBox="0 0 21 14" id="yt" xmlns="http://www.w3.org/2000/svg"><path d="M19.498 1.35C18.946.366 18.346.185 17.126.116 15.906.034 12.84 0 10.184 0c-2.66 0-5.728.034-6.946.116C2.02.186 1.419.366.862 1.349.292 2.33 0 4.021 0 6.996v.01c0 2.963.293 4.666.862 5.637.557.983 1.157 1.161 2.375 1.244 1.219.071 4.286.113 6.947.113 2.657 0 5.723-.042 6.943-.112 1.22-.083 1.82-.26 2.373-1.243.573-.971.864-2.674.864-5.637v-.011c0-2.976-.29-4.667-.866-5.648zM7.636 10.817V3.182L14 7l-6.364 3.818z"/></svg></svg>